<mxfile host="Electron" agent="Mozilla/5.0 (Windows NT 10.0; Win64; x64) AppleWebKit/537.36 (KHTML, like Gecko) draw.io/25.0.2 Chrome/128.0.6613.186 Electron/32.2.5 Safari/537.36" version="25.0.2">
  <diagram id="C5RBs43oDa-KdzZeNtuy" name="Page-1">
    <mxGraphModel dx="3900" dy="4320" grid="1" gridSize="10" guides="1" tooltips="1" connect="1" arrows="1" fold="1" page="0" pageScale="1" pageWidth="827" pageHeight="1169" math="0" shadow="0">
      <root>
        <mxCell id="WIyWlLk6GJQsqaUBKTNV-0" />
        <mxCell id="WIyWlLk6GJQsqaUBKTNV-1" parent="WIyWlLk6GJQsqaUBKTNV-0" />
        <mxCell id="EwRSl6hbGbTiZ6CcIf1_-13" value="" style="shape=actor;whiteSpace=wrap;html=1;" vertex="1" parent="WIyWlLk6GJQsqaUBKTNV-1">
          <mxGeometry x="620" y="-90" width="30" height="40" as="geometry" />
        </mxCell>
        <mxCell id="EwRSl6hbGbTiZ6CcIf1_-14" value="Enseignant" style="text;html=1;align=center;verticalAlign=middle;whiteSpace=wrap;rounded=0;" vertex="1" parent="WIyWlLk6GJQsqaUBKTNV-1">
          <mxGeometry x="605" y="-50" width="60" height="30" as="geometry" />
        </mxCell>
        <mxCell id="EwRSl6hbGbTiZ6CcIf1_-16" value="creerCours" style="ellipse;whiteSpace=wrap;html=1;" vertex="1" parent="WIyWlLk6GJQsqaUBKTNV-1">
          <mxGeometry x="250" y="30" width="100" height="50" as="geometry" />
        </mxCell>
        <mxCell id="EwRSl6hbGbTiZ6CcIf1_-17" value="ajouterContenu" style="ellipse;whiteSpace=wrap;html=1;" vertex="1" parent="WIyWlLk6GJQsqaUBKTNV-1">
          <mxGeometry x="490" y="25" width="100" height="60" as="geometry" />
        </mxCell>
        <mxCell id="EwRSl6hbGbTiZ6CcIf1_-19" value="creerQuiz" style="ellipse;whiteSpace=wrap;html=1;" vertex="1" parent="WIyWlLk6GJQsqaUBKTNV-1">
          <mxGeometry x="605" y="25" width="100" height="60" as="geometry" />
        </mxCell>
        <mxCell id="EwRSl6hbGbTiZ6CcIf1_-20" value="organiserChapitre" style="ellipse;whiteSpace=wrap;html=1;" vertex="1" parent="WIyWlLk6GJQsqaUBKTNV-1">
          <mxGeometry x="370" y="30" width="100" height="50" as="geometry" />
        </mxCell>
        <mxCell id="EwRSl6hbGbTiZ6CcIf1_-22" value="noterTraveaux" style="ellipse;whiteSpace=wrap;html=1;" vertex="1" parent="WIyWlLk6GJQsqaUBKTNV-1">
          <mxGeometry x="830" y="25" width="100" height="60" as="geometry" />
        </mxCell>
        <mxCell id="EwRSl6hbGbTiZ6CcIf1_-23" value="creerDevoir" style="ellipse;whiteSpace=wrap;html=1;" vertex="1" parent="WIyWlLk6GJQsqaUBKTNV-1">
          <mxGeometry x="715" y="25" width="100" height="60" as="geometry" />
        </mxCell>
        <mxCell id="EwRSl6hbGbTiZ6CcIf1_-24" value="" style="endArrow=classic;html=1;rounded=0;entryX=0.5;entryY=0;entryDx=0;entryDy=0;exitX=0;exitY=0.75;exitDx=0;exitDy=0;" edge="1" parent="WIyWlLk6GJQsqaUBKTNV-1" source="EwRSl6hbGbTiZ6CcIf1_-13" target="EwRSl6hbGbTiZ6CcIf1_-16">
          <mxGeometry width="50" height="50" relative="1" as="geometry">
            <mxPoint x="530" y="10" as="sourcePoint" />
            <mxPoint x="580" y="-40" as="targetPoint" />
          </mxGeometry>
        </mxCell>
        <mxCell id="EwRSl6hbGbTiZ6CcIf1_-25" value="" style="endArrow=classic;html=1;rounded=0;entryX=0.61;entryY=0.035;entryDx=0;entryDy=0;entryPerimeter=0;" edge="1" parent="WIyWlLk6GJQsqaUBKTNV-1" target="EwRSl6hbGbTiZ6CcIf1_-20">
          <mxGeometry width="50" height="50" relative="1" as="geometry">
            <mxPoint x="620" y="-60" as="sourcePoint" />
            <mxPoint x="580" y="-40" as="targetPoint" />
          </mxGeometry>
        </mxCell>
        <mxCell id="EwRSl6hbGbTiZ6CcIf1_-26" value="" style="endArrow=classic;html=1;rounded=0;entryX=0.634;entryY=-0.005;entryDx=0;entryDy=0;entryPerimeter=0;exitX=0.25;exitY=0;exitDx=0;exitDy=0;" edge="1" parent="WIyWlLk6GJQsqaUBKTNV-1" source="EwRSl6hbGbTiZ6CcIf1_-14" target="EwRSl6hbGbTiZ6CcIf1_-17">
          <mxGeometry width="50" height="50" relative="1" as="geometry">
            <mxPoint x="530" y="10" as="sourcePoint" />
            <mxPoint x="580" y="-40" as="targetPoint" />
          </mxGeometry>
        </mxCell>
        <mxCell id="EwRSl6hbGbTiZ6CcIf1_-27" value="" style="endArrow=classic;html=1;rounded=0;entryX=0.5;entryY=0;entryDx=0;entryDy=0;exitX=0.5;exitY=0;exitDx=0;exitDy=0;" edge="1" parent="WIyWlLk6GJQsqaUBKTNV-1" source="EwRSl6hbGbTiZ6CcIf1_-14" target="EwRSl6hbGbTiZ6CcIf1_-19">
          <mxGeometry width="50" height="50" relative="1" as="geometry">
            <mxPoint x="530" y="10" as="sourcePoint" />
            <mxPoint x="580" y="-40" as="targetPoint" />
          </mxGeometry>
        </mxCell>
        <mxCell id="EwRSl6hbGbTiZ6CcIf1_-28" value="" style="endArrow=classic;html=1;rounded=0;entryX=0.5;entryY=0;entryDx=0;entryDy=0;exitX=0.75;exitY=1;exitDx=0;exitDy=0;" edge="1" parent="WIyWlLk6GJQsqaUBKTNV-1" source="EwRSl6hbGbTiZ6CcIf1_-13" target="EwRSl6hbGbTiZ6CcIf1_-23">
          <mxGeometry width="50" height="50" relative="1" as="geometry">
            <mxPoint x="530" y="10" as="sourcePoint" />
            <mxPoint x="580" y="-40" as="targetPoint" />
          </mxGeometry>
        </mxCell>
        <mxCell id="EwRSl6hbGbTiZ6CcIf1_-29" value="" style="endArrow=classic;html=1;rounded=0;entryX=0.285;entryY=0.021;entryDx=0;entryDy=0;entryPerimeter=0;exitX=1;exitY=0.75;exitDx=0;exitDy=0;" edge="1" parent="WIyWlLk6GJQsqaUBKTNV-1" source="EwRSl6hbGbTiZ6CcIf1_-13" target="EwRSl6hbGbTiZ6CcIf1_-22">
          <mxGeometry width="50" height="50" relative="1" as="geometry">
            <mxPoint x="530" y="10" as="sourcePoint" />
            <mxPoint x="580" y="-40" as="targetPoint" />
          </mxGeometry>
        </mxCell>
        <mxCell id="EwRSl6hbGbTiZ6CcIf1_-30" value="" style="shape=actor;whiteSpace=wrap;html=1;" vertex="1" parent="WIyWlLk6GJQsqaUBKTNV-1">
          <mxGeometry x="1740" y="-90" width="30" height="40" as="geometry" />
        </mxCell>
        <mxCell id="EwRSl6hbGbTiZ6CcIf1_-32" value="Etudiant" style="text;html=1;align=center;verticalAlign=middle;whiteSpace=wrap;rounded=0;" vertex="1" parent="WIyWlLk6GJQsqaUBKTNV-1">
          <mxGeometry x="1725" y="-50" width="60" height="30" as="geometry" />
        </mxCell>
        <mxCell id="EwRSl6hbGbTiZ6CcIf1_-33" value="consulterNote" style="ellipse;whiteSpace=wrap;html=1;" vertex="1" parent="WIyWlLk6GJQsqaUBKTNV-1">
          <mxGeometry x="2070" y="25" width="100" height="60" as="geometry" />
        </mxCell>
        <mxCell id="EwRSl6hbGbTiZ6CcIf1_-34" value="Devoir" style="ellipse;whiteSpace=wrap;html=1;" vertex="1" parent="WIyWlLk6GJQsqaUBKTNV-1">
          <mxGeometry x="1910" y="25" width="100" height="60" as="geometry" />
        </mxCell>
        <mxCell id="EwRSl6hbGbTiZ6CcIf1_-35" value="Soumettre" style="ellipse;whiteSpace=wrap;html=1;" vertex="1" parent="WIyWlLk6GJQsqaUBKTNV-1">
          <mxGeometry x="1760" y="25" width="100" height="60" as="geometry" />
        </mxCell>
        <mxCell id="EwRSl6hbGbTiZ6CcIf1_-36" value="passerQuiz" style="ellipse;whiteSpace=wrap;html=1;" vertex="1" parent="WIyWlLk6GJQsqaUBKTNV-1">
          <mxGeometry x="1625" y="25" width="100" height="60" as="geometry" />
        </mxCell>
        <mxCell id="EwRSl6hbGbTiZ6CcIf1_-37" value="consulterContenu" style="ellipse;whiteSpace=wrap;html=1;" vertex="1" parent="WIyWlLk6GJQsqaUBKTNV-1">
          <mxGeometry x="1490" y="25" width="100" height="60" as="geometry" />
        </mxCell>
        <mxCell id="EwRSl6hbGbTiZ6CcIf1_-38" value="accederCours" style="ellipse;whiteSpace=wrap;html=1;" vertex="1" parent="WIyWlLk6GJQsqaUBKTNV-1">
          <mxGeometry x="1350" y="20" width="100" height="60" as="geometry" />
        </mxCell>
        <mxCell id="EwRSl6hbGbTiZ6CcIf1_-39" value="" style="endArrow=classic;html=1;rounded=0;entryX=0.5;entryY=0;entryDx=0;entryDy=0;exitX=0.1;exitY=0.5;exitDx=0;exitDy=0;exitPerimeter=0;" edge="1" parent="WIyWlLk6GJQsqaUBKTNV-1" source="EwRSl6hbGbTiZ6CcIf1_-30" target="EwRSl6hbGbTiZ6CcIf1_-38">
          <mxGeometry width="50" height="50" relative="1" as="geometry">
            <mxPoint x="1240" y="-50" as="sourcePoint" />
            <mxPoint x="1290" y="-100" as="targetPoint" />
          </mxGeometry>
        </mxCell>
        <mxCell id="EwRSl6hbGbTiZ6CcIf1_-40" value="" style="endArrow=classic;html=1;rounded=0;entryX=0.7;entryY=0.035;entryDx=0;entryDy=0;entryPerimeter=0;exitX=0.1;exitY=0.5;exitDx=0;exitDy=0;exitPerimeter=0;" edge="1" parent="WIyWlLk6GJQsqaUBKTNV-1" source="EwRSl6hbGbTiZ6CcIf1_-30" target="EwRSl6hbGbTiZ6CcIf1_-37">
          <mxGeometry width="50" height="50" relative="1" as="geometry">
            <mxPoint x="1780" y="70" as="sourcePoint" />
            <mxPoint x="1830" y="20" as="targetPoint" />
          </mxGeometry>
        </mxCell>
        <mxCell id="EwRSl6hbGbTiZ6CcIf1_-42" value="" style="endArrow=classic;html=1;rounded=0;exitX=0.25;exitY=0;exitDx=0;exitDy=0;entryX=0.5;entryY=0;entryDx=0;entryDy=0;" edge="1" parent="WIyWlLk6GJQsqaUBKTNV-1" source="EwRSl6hbGbTiZ6CcIf1_-32" target="EwRSl6hbGbTiZ6CcIf1_-36">
          <mxGeometry width="50" height="50" relative="1" as="geometry">
            <mxPoint x="1780" y="70" as="sourcePoint" />
            <mxPoint x="1670" y="20" as="targetPoint" />
          </mxGeometry>
        </mxCell>
        <mxCell id="EwRSl6hbGbTiZ6CcIf1_-43" value="" style="endArrow=classic;html=1;rounded=0;exitX=0.75;exitY=0;exitDx=0;exitDy=0;entryX=0.5;entryY=0;entryDx=0;entryDy=0;" edge="1" parent="WIyWlLk6GJQsqaUBKTNV-1" source="EwRSl6hbGbTiZ6CcIf1_-32" target="EwRSl6hbGbTiZ6CcIf1_-35">
          <mxGeometry width="50" height="50" relative="1" as="geometry">
            <mxPoint x="1780" y="70" as="sourcePoint" />
            <mxPoint x="1830" y="20" as="targetPoint" />
          </mxGeometry>
        </mxCell>
        <mxCell id="EwRSl6hbGbTiZ6CcIf1_-44" value="" style="endArrow=classic;html=1;rounded=0;exitX=1;exitY=0.75;exitDx=0;exitDy=0;entryX=0;entryY=0;entryDx=0;entryDy=0;" edge="1" parent="WIyWlLk6GJQsqaUBKTNV-1" source="EwRSl6hbGbTiZ6CcIf1_-30" target="EwRSl6hbGbTiZ6CcIf1_-34">
          <mxGeometry width="50" height="50" relative="1" as="geometry">
            <mxPoint x="1780" y="70" as="sourcePoint" />
            <mxPoint x="1830" y="20" as="targetPoint" />
          </mxGeometry>
        </mxCell>
        <mxCell id="EwRSl6hbGbTiZ6CcIf1_-45" value="" style="endArrow=classic;html=1;rounded=0;exitX=0.9;exitY=0.5;exitDx=0;exitDy=0;exitPerimeter=0;entryX=0;entryY=0;entryDx=0;entryDy=0;" edge="1" parent="WIyWlLk6GJQsqaUBKTNV-1" source="EwRSl6hbGbTiZ6CcIf1_-30" target="EwRSl6hbGbTiZ6CcIf1_-33">
          <mxGeometry width="50" height="50" relative="1" as="geometry">
            <mxPoint x="1780" y="70" as="sourcePoint" />
            <mxPoint x="1830" y="20" as="targetPoint" />
          </mxGeometry>
        </mxCell>
        <mxCell id="EwRSl6hbGbTiZ6CcIf1_-46" value="" style="shape=actor;whiteSpace=wrap;html=1;" vertex="1" parent="WIyWlLk6GJQsqaUBKTNV-1">
          <mxGeometry x="1130" y="-680" width="40" height="50" as="geometry" />
        </mxCell>
        <mxCell id="EwRSl6hbGbTiZ6CcIf1_-47" value="Utilisateur" style="text;html=1;align=center;verticalAlign=middle;whiteSpace=wrap;rounded=0;" vertex="1" parent="WIyWlLk6GJQsqaUBKTNV-1">
          <mxGeometry x="1120" y="-630" width="60" height="30" as="geometry" />
        </mxCell>
        <mxCell id="EwRSl6hbGbTiZ6CcIf1_-49" value="se connecter" style="ellipse;whiteSpace=wrap;html=1;" vertex="1" parent="WIyWlLk6GJQsqaUBKTNV-1">
          <mxGeometry x="1350" y="-645" width="100" height="60" as="geometry" />
        </mxCell>
        <mxCell id="EwRSl6hbGbTiZ6CcIf1_-50" value="s&#39;inscrire" style="ellipse;whiteSpace=wrap;html=1;" vertex="1" parent="WIyWlLk6GJQsqaUBKTNV-1">
          <mxGeometry x="1350" y="-730" width="100" height="60" as="geometry" />
        </mxCell>
        <mxCell id="EwRSl6hbGbTiZ6CcIf1_-51" value="" style="endArrow=classic;html=1;rounded=0;entryX=0;entryY=0.5;entryDx=0;entryDy=0;exitX=0.9;exitY=0.5;exitDx=0;exitDy=0;exitPerimeter=0;" edge="1" parent="WIyWlLk6GJQsqaUBKTNV-1" source="EwRSl6hbGbTiZ6CcIf1_-46" target="EwRSl6hbGbTiZ6CcIf1_-50">
          <mxGeometry width="50" height="50" relative="1" as="geometry">
            <mxPoint x="1050" y="-350" as="sourcePoint" />
            <mxPoint x="1100" y="-400" as="targetPoint" />
          </mxGeometry>
        </mxCell>
        <mxCell id="EwRSl6hbGbTiZ6CcIf1_-52" value="" style="endArrow=classic;html=1;rounded=0;entryX=0;entryY=0.5;entryDx=0;entryDy=0;exitX=0.9;exitY=0.5;exitDx=0;exitDy=0;exitPerimeter=0;" edge="1" parent="WIyWlLk6GJQsqaUBKTNV-1" source="EwRSl6hbGbTiZ6CcIf1_-46" target="EwRSl6hbGbTiZ6CcIf1_-49">
          <mxGeometry width="50" height="50" relative="1" as="geometry">
            <mxPoint x="1050" y="-350" as="sourcePoint" />
            <mxPoint x="1100" y="-400" as="targetPoint" />
          </mxGeometry>
        </mxCell>
        <mxCell id="EwRSl6hbGbTiZ6CcIf1_-53" value="" style="endArrow=classic;html=1;rounded=0;exitX=0.5;exitY=0;exitDx=0;exitDy=0;entryX=0;entryY=0.75;entryDx=0;entryDy=0;" edge="1" parent="WIyWlLk6GJQsqaUBKTNV-1" source="EwRSl6hbGbTiZ6CcIf1_-13" target="EwRSl6hbGbTiZ6CcIf1_-46">
          <mxGeometry width="50" height="50" relative="1" as="geometry">
            <mxPoint x="1050" y="-350" as="sourcePoint" />
            <mxPoint x="1100" y="-400" as="targetPoint" />
          </mxGeometry>
        </mxCell>
        <mxCell id="EwRSl6hbGbTiZ6CcIf1_-54" value="" style="endArrow=classic;html=1;rounded=0;exitX=0.5;exitY=0;exitDx=0;exitDy=0;entryX=0.75;entryY=0;entryDx=0;entryDy=0;" edge="1" parent="WIyWlLk6GJQsqaUBKTNV-1" source="EwRSl6hbGbTiZ6CcIf1_-30" target="EwRSl6hbGbTiZ6CcIf1_-47">
          <mxGeometry width="50" height="50" relative="1" as="geometry">
            <mxPoint x="1050" y="-350" as="sourcePoint" />
            <mxPoint x="1100" y="-400" as="targetPoint" />
          </mxGeometry>
        </mxCell>
        <mxCell id="EwRSl6hbGbTiZ6CcIf1_-55" value="" style="shape=actor;whiteSpace=wrap;html=1;" vertex="1" parent="WIyWlLk6GJQsqaUBKTNV-1">
          <mxGeometry x="410" y="-1160" width="40" height="50" as="geometry" />
        </mxCell>
        <mxCell id="EwRSl6hbGbTiZ6CcIf1_-56" value="Administrateur" style="text;html=1;align=center;verticalAlign=middle;whiteSpace=wrap;rounded=0;" vertex="1" parent="WIyWlLk6GJQsqaUBKTNV-1">
          <mxGeometry x="400" y="-1100" width="60" height="30" as="geometry" />
        </mxCell>
        <mxCell id="EwRSl6hbGbTiZ6CcIf1_-57" value="supperviserPlateforme" style="ellipse;whiteSpace=wrap;html=1;" vertex="1" parent="WIyWlLk6GJQsqaUBKTNV-1">
          <mxGeometry x="490" y="-1345" width="160" height="70" as="geometry" />
        </mxCell>
        <mxCell id="EwRSl6hbGbTiZ6CcIf1_-58" value="gererRole" style="ellipse;whiteSpace=wrap;html=1;" vertex="1" parent="WIyWlLk6GJQsqaUBKTNV-1">
          <mxGeometry x="340" y="-1340" width="100" height="60" as="geometry" />
        </mxCell>
        <mxCell id="EwRSl6hbGbTiZ6CcIf1_-59" value="ajouterUtilisateur" style="ellipse;whiteSpace=wrap;html=1;" vertex="1" parent="WIyWlLk6GJQsqaUBKTNV-1">
          <mxGeometry x="150" y="-1350" width="120" height="70" as="geometry" />
        </mxCell>
        <mxCell id="EwRSl6hbGbTiZ6CcIf1_-60" value="gererProfil" style="ellipse;whiteSpace=wrap;html=1;" vertex="1" parent="WIyWlLk6GJQsqaUBKTNV-1">
          <mxGeometry x="730" y="-1330" width="100" height="60" as="geometry" />
        </mxCell>
        <mxCell id="EwRSl6hbGbTiZ6CcIf1_-61" value="" style="shape=actor;whiteSpace=wrap;html=1;" vertex="1" parent="WIyWlLk6GJQsqaUBKTNV-1">
          <mxGeometry x="1830" y="-1160" width="40" height="50" as="geometry" />
        </mxCell>
        <mxCell id="EwRSl6hbGbTiZ6CcIf1_-62" value="Responsable scolarité" style="text;html=1;align=center;verticalAlign=middle;whiteSpace=wrap;rounded=0;" vertex="1" parent="WIyWlLk6GJQsqaUBKTNV-1">
          <mxGeometry x="1820" y="-1100" width="60" height="30" as="geometry" />
        </mxCell>
        <mxCell id="EwRSl6hbGbTiZ6CcIf1_-63" value="gererFiliere" style="ellipse;whiteSpace=wrap;html=1;" vertex="1" parent="WIyWlLk6GJQsqaUBKTNV-1">
          <mxGeometry x="1500" y="-1410" width="100" height="60" as="geometry" />
        </mxCell>
        <mxCell id="EwRSl6hbGbTiZ6CcIf1_-64" value="affecterMatieres" style="ellipse;whiteSpace=wrap;html=1;" vertex="1" parent="WIyWlLk6GJQsqaUBKTNV-1">
          <mxGeometry x="2340" y="-1420" width="130" height="75" as="geometry" />
        </mxCell>
        <mxCell id="EwRSl6hbGbTiZ6CcIf1_-65" value="inscrireEnseignant" style="ellipse;whiteSpace=wrap;html=1;" vertex="1" parent="WIyWlLk6GJQsqaUBKTNV-1">
          <mxGeometry x="2130" y="-1430" width="150" height="80" as="geometry" />
        </mxCell>
        <mxCell id="EwRSl6hbGbTiZ6CcIf1_-66" value="inscricreEtudiant" style="ellipse;whiteSpace=wrap;html=1;" vertex="1" parent="WIyWlLk6GJQsqaUBKTNV-1">
          <mxGeometry x="1950" y="-1420" width="130" height="70" as="geometry" />
        </mxCell>
        <mxCell id="EwRSl6hbGbTiZ6CcIf1_-67" value="gererClasse" style="ellipse;whiteSpace=wrap;html=1;" vertex="1" parent="WIyWlLk6GJQsqaUBKTNV-1">
          <mxGeometry x="1810" y="-1410" width="100" height="60" as="geometry" />
        </mxCell>
        <mxCell id="EwRSl6hbGbTiZ6CcIf1_-68" value="gererNiveaux" style="ellipse;whiteSpace=wrap;html=1;" vertex="1" parent="WIyWlLk6GJQsqaUBKTNV-1">
          <mxGeometry x="1660" y="-1410" width="100" height="60" as="geometry" />
        </mxCell>
        <mxCell id="EwRSl6hbGbTiZ6CcIf1_-69" value="" style="endArrow=classic;html=1;rounded=0;entryX=0.5;entryY=1;entryDx=0;entryDy=0;exitX=0.1;exitY=0.5;exitDx=0;exitDy=0;exitPerimeter=0;" edge="1" parent="WIyWlLk6GJQsqaUBKTNV-1" source="EwRSl6hbGbTiZ6CcIf1_-55" target="EwRSl6hbGbTiZ6CcIf1_-59">
          <mxGeometry width="50" height="50" relative="1" as="geometry">
            <mxPoint x="370" y="-1120" as="sourcePoint" />
            <mxPoint x="420" y="-1170" as="targetPoint" />
          </mxGeometry>
        </mxCell>
        <mxCell id="EwRSl6hbGbTiZ6CcIf1_-70" value="" style="endArrow=classic;html=1;rounded=0;entryX=0.5;entryY=1;entryDx=0;entryDy=0;exitX=0.1;exitY=0.5;exitDx=0;exitDy=0;exitPerimeter=0;" edge="1" parent="WIyWlLk6GJQsqaUBKTNV-1" source="EwRSl6hbGbTiZ6CcIf1_-55" target="EwRSl6hbGbTiZ6CcIf1_-58">
          <mxGeometry width="50" height="50" relative="1" as="geometry">
            <mxPoint x="370" y="-1120" as="sourcePoint" />
            <mxPoint x="420" y="-1170" as="targetPoint" />
          </mxGeometry>
        </mxCell>
        <mxCell id="EwRSl6hbGbTiZ6CcIf1_-71" value="" style="endArrow=classic;html=1;rounded=0;entryX=0.5;entryY=1;entryDx=0;entryDy=0;exitX=0.5;exitY=0;exitDx=0;exitDy=0;" edge="1" parent="WIyWlLk6GJQsqaUBKTNV-1" source="EwRSl6hbGbTiZ6CcIf1_-55" target="EwRSl6hbGbTiZ6CcIf1_-57">
          <mxGeometry width="50" height="50" relative="1" as="geometry">
            <mxPoint x="370" y="-1120" as="sourcePoint" />
            <mxPoint x="420" y="-1170" as="targetPoint" />
          </mxGeometry>
        </mxCell>
        <mxCell id="EwRSl6hbGbTiZ6CcIf1_-72" value="" style="endArrow=classic;html=1;rounded=0;entryX=0.5;entryY=1;entryDx=0;entryDy=0;exitX=0.75;exitY=0.25;exitDx=0;exitDy=0;exitPerimeter=0;" edge="1" parent="WIyWlLk6GJQsqaUBKTNV-1" source="EwRSl6hbGbTiZ6CcIf1_-55" target="EwRSl6hbGbTiZ6CcIf1_-60">
          <mxGeometry width="50" height="50" relative="1" as="geometry">
            <mxPoint x="370" y="-1120" as="sourcePoint" />
            <mxPoint x="420" y="-1170" as="targetPoint" />
          </mxGeometry>
        </mxCell>
        <mxCell id="EwRSl6hbGbTiZ6CcIf1_-73" value="" style="endArrow=classic;html=1;rounded=0;entryX=0.5;entryY=1;entryDx=0;entryDy=0;exitX=0.1;exitY=0.5;exitDx=0;exitDy=0;exitPerimeter=0;" edge="1" parent="WIyWlLk6GJQsqaUBKTNV-1" source="EwRSl6hbGbTiZ6CcIf1_-61" target="EwRSl6hbGbTiZ6CcIf1_-63">
          <mxGeometry width="50" height="50" relative="1" as="geometry">
            <mxPoint x="1820" y="-1150" as="sourcePoint" />
            <mxPoint x="1900" y="-1170" as="targetPoint" />
          </mxGeometry>
        </mxCell>
        <mxCell id="EwRSl6hbGbTiZ6CcIf1_-74" value="" style="endArrow=classic;html=1;rounded=0;entryX=0.5;entryY=1;entryDx=0;entryDy=0;exitX=0.1;exitY=0.5;exitDx=0;exitDy=0;exitPerimeter=0;" edge="1" parent="WIyWlLk6GJQsqaUBKTNV-1" source="EwRSl6hbGbTiZ6CcIf1_-61" target="EwRSl6hbGbTiZ6CcIf1_-68">
          <mxGeometry width="50" height="50" relative="1" as="geometry">
            <mxPoint x="1850" y="-1120" as="sourcePoint" />
            <mxPoint x="1900" y="-1170" as="targetPoint" />
          </mxGeometry>
        </mxCell>
        <mxCell id="EwRSl6hbGbTiZ6CcIf1_-75" value="" style="endArrow=classic;html=1;rounded=0;entryX=0.363;entryY=0.967;entryDx=0;entryDy=0;entryPerimeter=0;exitX=0.75;exitY=0.25;exitDx=0;exitDy=0;exitPerimeter=0;" edge="1" parent="WIyWlLk6GJQsqaUBKTNV-1" source="EwRSl6hbGbTiZ6CcIf1_-61" target="EwRSl6hbGbTiZ6CcIf1_-67">
          <mxGeometry width="50" height="50" relative="1" as="geometry">
            <mxPoint x="1846" y="-1160" as="sourcePoint" />
            <mxPoint x="1900" y="-1170" as="targetPoint" />
          </mxGeometry>
        </mxCell>
        <mxCell id="EwRSl6hbGbTiZ6CcIf1_-76" value="" style="endArrow=classic;html=1;rounded=0;entryX=0.5;entryY=1;entryDx=0;entryDy=0;" edge="1" parent="WIyWlLk6GJQsqaUBKTNV-1" target="EwRSl6hbGbTiZ6CcIf1_-66">
          <mxGeometry width="50" height="50" relative="1" as="geometry">
            <mxPoint x="1850" y="-1150" as="sourcePoint" />
            <mxPoint x="1900" y="-1170" as="targetPoint" />
          </mxGeometry>
        </mxCell>
        <mxCell id="EwRSl6hbGbTiZ6CcIf1_-77" value="" style="endArrow=classic;html=1;rounded=0;entryX=0.5;entryY=1;entryDx=0;entryDy=0;exitX=0.75;exitY=0.25;exitDx=0;exitDy=0;exitPerimeter=0;" edge="1" parent="WIyWlLk6GJQsqaUBKTNV-1" source="EwRSl6hbGbTiZ6CcIf1_-61" target="EwRSl6hbGbTiZ6CcIf1_-65">
          <mxGeometry width="50" height="50" relative="1" as="geometry">
            <mxPoint x="1850" y="-1120" as="sourcePoint" />
            <mxPoint x="1900" y="-1170" as="targetPoint" />
          </mxGeometry>
        </mxCell>
        <mxCell id="EwRSl6hbGbTiZ6CcIf1_-78" value="" style="endArrow=classic;html=1;rounded=0;entryX=0.5;entryY=1;entryDx=0;entryDy=0;exitX=0.75;exitY=0.25;exitDx=0;exitDy=0;exitPerimeter=0;" edge="1" parent="WIyWlLk6GJQsqaUBKTNV-1" source="EwRSl6hbGbTiZ6CcIf1_-61" target="EwRSl6hbGbTiZ6CcIf1_-64">
          <mxGeometry width="50" height="50" relative="1" as="geometry">
            <mxPoint x="1850" y="-1120" as="sourcePoint" />
            <mxPoint x="1900" y="-1170" as="targetPoint" />
          </mxGeometry>
        </mxCell>
        <mxCell id="EwRSl6hbGbTiZ6CcIf1_-79" value="" style="shape=actor;whiteSpace=wrap;html=1;" vertex="1" parent="WIyWlLk6GJQsqaUBKTNV-1">
          <mxGeometry x="3310" y="-1165" width="40" height="60" as="geometry" />
        </mxCell>
        <mxCell id="EwRSl6hbGbTiZ6CcIf1_-80" value="Comptable" style="text;html=1;align=center;verticalAlign=middle;whiteSpace=wrap;rounded=0;" vertex="1" parent="WIyWlLk6GJQsqaUBKTNV-1">
          <mxGeometry x="3300" y="-1100" width="60" height="30" as="geometry" />
        </mxCell>
        <mxCell id="EwRSl6hbGbTiZ6CcIf1_-82" value="genererRapportFinancier" style="ellipse;whiteSpace=wrap;html=1;" vertex="1" parent="WIyWlLk6GJQsqaUBKTNV-1">
          <mxGeometry x="3550" y="-1340" width="150" height="70" as="geometry" />
        </mxCell>
        <mxCell id="EwRSl6hbGbTiZ6CcIf1_-83" value="traiterPaieEnseignant" style="ellipse;whiteSpace=wrap;html=1;" vertex="1" parent="WIyWlLk6GJQsqaUBKTNV-1">
          <mxGeometry x="3370" y="-1340" width="150" height="60" as="geometry" />
        </mxCell>
        <mxCell id="EwRSl6hbGbTiZ6CcIf1_-84" value="gestionPaiementEtudiant" style="ellipse;whiteSpace=wrap;html=1;" vertex="1" parent="WIyWlLk6GJQsqaUBKTNV-1">
          <mxGeometry x="3130" y="-1350" width="170" height="70" as="geometry" />
        </mxCell>
        <mxCell id="EwRSl6hbGbTiZ6CcIf1_-85" value="" style="endArrow=classic;html=1;rounded=0;entryX=0.5;entryY=1;entryDx=0;entryDy=0;exitX=0.25;exitY=0.2;exitDx=0;exitDy=0;exitPerimeter=0;" edge="1" parent="WIyWlLk6GJQsqaUBKTNV-1" source="EwRSl6hbGbTiZ6CcIf1_-79" target="EwRSl6hbGbTiZ6CcIf1_-84">
          <mxGeometry width="50" height="50" relative="1" as="geometry">
            <mxPoint x="3210" y="-1010" as="sourcePoint" />
            <mxPoint x="3260" y="-1060" as="targetPoint" />
          </mxGeometry>
        </mxCell>
        <mxCell id="EwRSl6hbGbTiZ6CcIf1_-86" value="" style="endArrow=classic;html=1;rounded=0;entryX=0.5;entryY=1;entryDx=0;entryDy=0;exitX=0.5;exitY=0;exitDx=0;exitDy=0;" edge="1" parent="WIyWlLk6GJQsqaUBKTNV-1" source="EwRSl6hbGbTiZ6CcIf1_-79" target="EwRSl6hbGbTiZ6CcIf1_-83">
          <mxGeometry width="50" height="50" relative="1" as="geometry">
            <mxPoint x="3210" y="-1010" as="sourcePoint" />
            <mxPoint x="3260" y="-1060" as="targetPoint" />
          </mxGeometry>
        </mxCell>
        <mxCell id="EwRSl6hbGbTiZ6CcIf1_-87" value="" style="endArrow=classic;html=1;rounded=0;entryX=0.5;entryY=1;entryDx=0;entryDy=0;exitX=0.75;exitY=0.25;exitDx=0;exitDy=0;exitPerimeter=0;" edge="1" parent="WIyWlLk6GJQsqaUBKTNV-1" source="EwRSl6hbGbTiZ6CcIf1_-79" target="EwRSl6hbGbTiZ6CcIf1_-82">
          <mxGeometry width="50" height="50" relative="1" as="geometry">
            <mxPoint x="3210" y="-1010" as="sourcePoint" />
            <mxPoint x="3260" y="-1060" as="targetPoint" />
          </mxGeometry>
        </mxCell>
        <mxCell id="EwRSl6hbGbTiZ6CcIf1_-88" value="" style="endArrow=classic;html=1;rounded=0;exitX=0.5;exitY=0;exitDx=0;exitDy=0;entryX=0.1;entryY=0.5;entryDx=0;entryDy=0;entryPerimeter=0;" edge="1" parent="WIyWlLk6GJQsqaUBKTNV-1" source="EwRSl6hbGbTiZ6CcIf1_-56" target="EwRSl6hbGbTiZ6CcIf1_-46">
          <mxGeometry width="50" height="50" relative="1" as="geometry">
            <mxPoint x="690" y="-630" as="sourcePoint" />
            <mxPoint x="740" y="-680" as="targetPoint" />
          </mxGeometry>
        </mxCell>
        <mxCell id="EwRSl6hbGbTiZ6CcIf1_-89" value="" style="endArrow=classic;html=1;rounded=0;exitX=0;exitY=0.75;exitDx=0;exitDy=0;entryX=0.5;entryY=0;entryDx=0;entryDy=0;" edge="1" parent="WIyWlLk6GJQsqaUBKTNV-1" source="EwRSl6hbGbTiZ6CcIf1_-61" target="EwRSl6hbGbTiZ6CcIf1_-46">
          <mxGeometry width="50" height="50" relative="1" as="geometry">
            <mxPoint x="1330" y="-630" as="sourcePoint" />
            <mxPoint x="1380" y="-680" as="targetPoint" />
          </mxGeometry>
        </mxCell>
        <mxCell id="EwRSl6hbGbTiZ6CcIf1_-90" value="" style="endArrow=classic;html=1;rounded=0;entryX=0.75;entryY=0.25;entryDx=0;entryDy=0;entryPerimeter=0;exitX=0;exitY=0.75;exitDx=0;exitDy=0;" edge="1" parent="WIyWlLk6GJQsqaUBKTNV-1" source="EwRSl6hbGbTiZ6CcIf1_-79" target="EwRSl6hbGbTiZ6CcIf1_-46">
          <mxGeometry width="50" height="50" relative="1" as="geometry">
            <mxPoint x="1760" y="-630" as="sourcePoint" />
            <mxPoint x="1810" y="-680" as="targetPoint" />
          </mxGeometry>
        </mxCell>
        <mxCell id="EwRSl6hbGbTiZ6CcIf1_-92" value="Communication" style="swimlane;whiteSpace=wrap;html=1;" vertex="1" parent="WIyWlLk6GJQsqaUBKTNV-1">
          <mxGeometry x="840" y="270" width="710" height="210" as="geometry" />
        </mxCell>
        <mxCell id="EwRSl6hbGbTiZ6CcIf1_-95" value="envoyerMessage" style="ellipse;whiteSpace=wrap;html=1;" vertex="1" parent="EwRSl6hbGbTiZ6CcIf1_-92">
          <mxGeometry x="480" y="60" width="190" height="110" as="geometry" />
        </mxCell>
        <mxCell id="EwRSl6hbGbTiZ6CcIf1_-94" value="utiliserChat" style="ellipse;whiteSpace=wrap;html=1;" vertex="1" parent="EwRSl6hbGbTiZ6CcIf1_-92">
          <mxGeometry x="250" y="70" width="150" height="110" as="geometry" />
        </mxCell>
        <mxCell id="EwRSl6hbGbTiZ6CcIf1_-93" value="participeForum" style="ellipse;whiteSpace=wrap;html=1;" vertex="1" parent="WIyWlLk6GJQsqaUBKTNV-1">
          <mxGeometry x="845" y="330" width="165" height="110" as="geometry" />
        </mxCell>
        <mxCell id="EwRSl6hbGbTiZ6CcIf1_-98" value="" style="curved=1;endArrow=classic;html=1;rounded=0;exitX=0.9;exitY=0.5;exitDx=0;exitDy=0;exitPerimeter=0;entryX=0.25;entryY=0;entryDx=0;entryDy=0;" edge="1" parent="WIyWlLk6GJQsqaUBKTNV-1" source="EwRSl6hbGbTiZ6CcIf1_-13" target="EwRSl6hbGbTiZ6CcIf1_-92">
          <mxGeometry width="50" height="50" relative="1" as="geometry">
            <mxPoint x="1120" y="320" as="sourcePoint" />
            <mxPoint x="1170" y="270" as="targetPoint" />
            <Array as="points">
              <mxPoint x="970" y="-110" />
              <mxPoint x="1120" y="-20" />
              <mxPoint x="1120" y="270" />
            </Array>
          </mxGeometry>
        </mxCell>
        <mxCell id="EwRSl6hbGbTiZ6CcIf1_-101" value="" style="curved=1;endArrow=classic;html=1;rounded=0;exitX=0.75;exitY=0.25;exitDx=0;exitDy=0;exitPerimeter=0;" edge="1" parent="WIyWlLk6GJQsqaUBKTNV-1" source="EwRSl6hbGbTiZ6CcIf1_-30">
          <mxGeometry width="50" height="50" relative="1" as="geometry">
            <mxPoint x="1120" y="-280" as="sourcePoint" />
            <mxPoint x="1270" y="260" as="targetPoint" />
            <Array as="points">
              <mxPoint x="1170" y="-280" />
              <mxPoint x="1140" y="110" />
            </Array>
          </mxGeometry>
        </mxCell>
      </root>
    </mxGraphModel>
  </diagram>
</mxfile>
